<svg width="380" height="56" viewBox="0 0 380 56" fill="none" xmlns="http://www.w3.org/2000/svg">
<path d="M73.9432 14.125C73.8371 13.1326 73.3902 12.3598 72.6023 11.8068C71.822 11.2538 70.8068 10.9773 69.5568 10.9773C68.678 10.9773 67.9242 11.1098 67.2955 11.375C66.6667 11.6402 66.1856 12 65.8523 12.4545C65.5189 12.9091 65.3485 13.428 65.3409 14.0114C65.3409 14.4962 65.4508 14.9167 65.6705 15.2727C65.8977 15.6288 66.2045 15.9318 66.5909 16.1818C66.9773 16.4242 67.4053 16.6288 67.875 16.7955C68.3447 16.9621 68.8182 17.1023 69.2955 17.2159L71.4773 17.7614C72.3561 17.9659 73.2008 18.2424 74.0114 18.5909C74.8295 18.9394 75.5606 19.3788 76.2045 19.9091C76.8561 20.4394 77.3712 21.0795 77.75 21.8295C78.1288 22.5795 78.3182 23.4583 78.3182 24.4659C78.3182 25.8295 77.9697 27.0303 77.2727 28.0682C76.5758 29.0985 75.5682 29.9053 74.25 30.4886C72.9394 31.0644 71.3523 31.3523 69.4886 31.3523C67.678 31.3523 66.1061 31.072 64.7727 30.5114C63.447 29.9508 62.4091 29.1326 61.6591 28.0568C60.9167 26.9811 60.5152 25.6705 60.4545 24.125H64.6023C64.6629 24.9356 64.9129 25.6098 65.3523 26.1477C65.7917 26.6856 66.3636 27.0871 67.0682 27.3523C67.7803 27.6174 68.5758 27.75 69.4545 27.75C70.3712 27.75 71.1742 27.6136 71.8636 27.3409C72.5606 27.0606 73.1061 26.6742 73.5 26.1818C73.8939 25.6818 74.0947 25.0985 74.1023 24.4318C74.0947 23.8258 73.9167 23.3258 73.5682 22.9318C73.2197 22.5303 72.7311 22.197 72.1023 21.9318C71.4811 21.6591 70.7538 21.4167 69.9205 21.2045L67.2727 20.5227C65.3561 20.0303 63.8409 19.2841 62.7273 18.2841C61.6212 17.2765 61.0682 15.9394 61.0682 14.2727C61.0682 12.9015 61.4394 11.7008 62.1818 10.6705C62.9318 9.64015 63.9508 8.84091 65.2386 8.27273C66.5265 7.69697 67.9848 7.40909 69.6136 7.40909C71.2652 7.40909 72.7121 7.69697 73.9545 8.27273C75.2045 8.84091 76.1856 9.63258 76.8977 10.6477C77.6098 11.6553 77.9773 12.8144 78 14.125H73.9432ZM82.0767 31V7.72727H86.2926V27.4659H96.5426V31H82.0767ZM104.065 31H99.5653L107.759 7.72727H112.963L121.168 31H116.668L110.452 12.5H110.27L104.065 31ZM104.213 21.875H116.486V25.2614H104.213V21.875ZM143.06 15.5795H138.81C138.688 14.8826 138.465 14.2652 138.139 13.7273C137.813 13.1818 137.408 12.7197 136.923 12.3409C136.438 11.9621 135.885 11.678 135.264 11.4886C134.651 11.2917 133.988 11.1932 133.276 11.1932C132.01 11.1932 130.889 11.5114 129.912 12.1477C128.935 12.7765 128.17 13.7008 127.616 14.9205C127.063 16.1326 126.787 17.6136 126.787 19.3636C126.787 21.1439 127.063 22.6439 127.616 23.8636C128.177 25.0758 128.942 25.9924 129.912 26.6136C130.889 27.2273 132.007 27.5341 133.264 27.5341C133.961 27.5341 134.613 27.4432 135.219 27.2614C135.832 27.072 136.382 26.7955 136.866 26.4318C137.359 26.0682 137.772 25.6212 138.105 25.0909C138.446 24.5606 138.681 23.9545 138.81 23.2727L143.06 23.2955C142.901 24.4015 142.556 25.4394 142.026 26.4091C141.503 27.3788 140.817 28.2348 139.969 28.9773C139.12 29.7121 138.128 30.2879 136.991 30.7045C135.855 31.1136 134.594 31.3182 133.207 31.3182C131.162 31.3182 129.336 30.8447 127.73 29.8977C126.124 28.9508 124.859 27.5833 123.935 25.7955C123.01 24.0076 122.548 21.8636 122.548 19.3636C122.548 16.8561 123.014 14.7121 123.946 12.9318C124.878 11.1439 126.147 9.77651 127.753 8.82954C129.359 7.88257 131.177 7.40909 133.207 7.40909C134.503 7.40909 135.707 7.59091 136.821 7.95454C137.935 8.31818 138.927 8.85227 139.798 9.55682C140.67 10.2538 141.385 11.1098 141.946 12.125C142.514 13.1326 142.885 14.2841 143.06 15.5795ZM146.92 31V7.72727H151.136V18.4205H151.42L160.5 7.72727H165.648L156.648 18.1705L165.727 31H160.659L153.716 21.0227L151.136 24.0682V31H146.92ZM179.503 31H175.003L183.196 7.72727H188.401L196.605 31H192.105L185.889 12.5H185.707L179.503 31ZM179.651 21.875H191.923V25.2614H179.651V21.875ZM218.795 7.72727V31H215.045L204.08 15.1477H203.886V31H199.67V7.72727H203.443L214.398 23.5909H214.602V7.72727H218.795ZM226.378 31H221.878L230.071 7.72727H235.276L243.48 31H238.98L232.764 12.5H232.582L226.378 31ZM226.526 21.875H238.798V25.2614H226.526V21.875ZM246.545 31V7.72727H250.761V27.4659H261.011V31H246.545ZM260.736 7.72727H265.497L271.19 18.0227H271.418L277.111 7.72727H281.872L273.406 22.3182V31H269.202V22.3182L260.736 7.72727ZM285.304 11.2614V7.72727H303.872V11.2614H296.679V31H292.497V11.2614H285.304ZM311.668 7.72727V31H307.452V7.72727H311.668ZM336.153 15.5795H331.903C331.782 14.8826 331.559 14.2652 331.233 13.7273C330.907 13.1818 330.502 12.7197 330.017 12.3409C329.532 11.9621 328.979 11.678 328.358 11.4886C327.744 11.2917 327.081 11.1932 326.369 11.1932C325.104 11.1932 323.983 11.5114 323.006 12.1477C322.028 12.7765 321.263 13.7008 320.71 14.9205C320.157 16.1326 319.881 17.6136 319.881 19.3636C319.881 21.1439 320.157 22.6439 320.71 23.8636C321.271 25.0758 322.036 25.9924 323.006 26.6136C323.983 27.2273 325.1 27.5341 326.358 27.5341C327.055 27.5341 327.706 27.4432 328.312 27.2614C328.926 27.072 329.475 26.7955 329.96 26.4318C330.453 26.0682 330.866 25.6212 331.199 25.0909C331.54 24.5606 331.775 23.9545 331.903 23.2727L336.153 23.2955C335.994 24.4015 335.65 25.4394 335.119 26.4091C334.597 27.3788 333.911 28.2348 333.062 28.9773C332.214 29.7121 331.222 30.2879 330.085 30.7045C328.949 31.1136 327.688 31.3182 326.301 31.3182C324.256 31.3182 322.43 30.8447 320.824 29.8977C319.218 28.9508 317.953 27.5833 317.028 25.7955C316.104 24.0076 315.642 21.8636 315.642 19.3636C315.642 16.8561 316.108 14.7121 317.04 12.9318C317.972 11.1439 319.241 9.77651 320.847 8.82954C322.453 7.88257 324.271 7.40909 326.301 7.40909C327.597 7.40909 328.801 7.59091 329.915 7.95454C331.028 8.31818 332.021 8.85227 332.892 9.55682C333.763 10.2538 334.479 11.1098 335.04 12.125C335.608 13.1326 335.979 14.2841 336.153 15.5795ZM352.662 14.125C352.556 13.1326 352.109 12.3598 351.321 11.8068C350.541 11.2538 349.526 10.9773 348.276 10.9773C347.397 10.9773 346.643 11.1098 346.014 11.375C345.385 11.6402 344.904 12 344.571 12.4545C344.238 12.9091 344.067 13.428 344.06 14.0114C344.06 14.4962 344.17 14.9167 344.389 15.2727C344.616 15.6288 344.923 15.9318 345.31 16.1818C345.696 16.4242 346.124 16.6288 346.594 16.7955C347.063 16.9621 347.537 17.1023 348.014 17.2159L350.196 17.7614C351.075 17.9659 351.92 18.2424 352.73 18.5909C353.548 18.9394 354.279 19.3788 354.923 19.9091C355.575 20.4394 356.09 21.0795 356.469 21.8295C356.848 22.5795 357.037 23.4583 357.037 24.4659C357.037 25.8295 356.688 27.0303 355.991 28.0682C355.295 29.0985 354.287 29.9053 352.969 30.4886C351.658 31.0644 350.071 31.3523 348.207 31.3523C346.397 31.3523 344.825 31.072 343.491 30.5114C342.166 29.9508 341.128 29.1326 340.378 28.0568C339.635 26.9811 339.234 25.6705 339.173 24.125H343.321C343.382 24.9356 343.632 25.6098 344.071 26.1477C344.51 26.6856 345.082 27.0871 345.787 27.3523C346.499 27.6174 347.295 27.75 348.173 27.75C349.09 27.75 349.893 27.6136 350.582 27.3409C351.279 27.0606 351.825 26.6742 352.219 26.1818C352.613 25.6818 352.813 25.0985 352.821 24.4318C352.813 23.8258 352.635 23.3258 352.287 22.9318C351.938 22.5303 351.45 22.197 350.821 21.9318C350.2 21.6591 349.473 21.4167 348.639 21.2045L345.991 20.5227C344.075 20.0303 342.56 19.2841 341.446 18.2841C340.34 17.2765 339.787 15.9394 339.787 14.2727C339.787 12.9015 340.158 11.7008 340.901 10.6705C341.651 9.64015 342.67 8.84091 343.957 8.27273C345.245 7.69697 346.704 7.40909 348.332 7.40909C349.984 7.40909 351.431 7.69697 352.673 8.27273C353.923 8.84091 354.904 9.63258 355.616 10.6477C356.329 11.6553 356.696 12.8144 356.719 14.125H352.662Z" fill="#028971"/>
<path d="M61.9318 47.2614L61.9261 44.7784H62.2557L65.392 41.2727H67.7955L63.9375 45.5682H63.5114L61.9318 47.2614ZM60.0568 50V38.3636H62.1136V50H60.0568ZM65.5341 50L62.6932 46.0284L64.0795 44.5795L67.9943 50H65.5341ZM72.6705 50.1705C71.7955 50.1705 71.0398 49.9886 70.4034 49.625C69.7708 49.2576 69.2841 48.7386 68.9432 48.0682C68.6023 47.3939 68.4318 46.6004 68.4318 45.6875C68.4318 44.7898 68.6023 44.0019 68.9432 43.3239C69.2879 42.642 69.7689 42.1117 70.3864 41.733C71.0038 41.3504 71.7292 41.1591 72.5625 41.1591C73.1004 41.1591 73.608 41.2462 74.0852 41.4205C74.5663 41.5909 74.9905 41.8561 75.358 42.2159C75.7292 42.5758 76.0208 43.0341 76.233 43.5909C76.4451 44.1439 76.5511 44.803 76.5511 45.5682V46.1989H69.3977V44.8125H74.5795C74.5758 44.4186 74.4905 44.0682 74.3239 43.7614C74.1572 43.4508 73.9242 43.2064 73.625 43.0284C73.3295 42.8504 72.9848 42.7614 72.5909 42.7614C72.1705 42.7614 71.8011 42.8636 71.483 43.0682C71.1648 43.2689 70.9167 43.5341 70.7386 43.8636C70.5644 44.1894 70.4754 44.5473 70.4716 44.9375V46.1477C70.4716 46.6553 70.5644 47.0909 70.75 47.4545C70.9356 47.8144 71.1951 48.0909 71.5284 48.2841C71.8617 48.4735 72.2519 48.5682 72.6989 48.5682C72.9981 48.5682 73.2689 48.5265 73.5114 48.4432C73.7538 48.3561 73.964 48.2292 74.142 48.0625C74.3201 47.8958 74.4545 47.6894 74.5455 47.4432L76.4659 47.6591C76.3447 48.1667 76.1136 48.6098 75.7727 48.9886C75.4356 49.3636 75.0038 49.6553 74.4773 49.8636C73.9508 50.0682 73.3485 50.1705 72.6705 50.1705ZM82.1548 50.1705C81.2798 50.1705 80.5241 49.9886 79.8878 49.625C79.2552 49.2576 78.7685 48.7386 78.4276 48.0682C78.0866 47.3939 77.9162 46.6004 77.9162 45.6875C77.9162 44.7898 78.0866 44.0019 78.4276 43.3239C78.7723 42.642 79.2533 42.1117 79.8707 41.733C80.4882 41.3504 81.2135 41.1591 82.0469 41.1591C82.5848 41.1591 83.0923 41.2462 83.5696 41.4205C84.0507 41.5909 84.4749 41.8561 84.8423 42.2159C85.2135 42.5758 85.5052 43.0341 85.7173 43.5909C85.9295 44.1439 86.0355 44.803 86.0355 45.5682V46.1989H78.8821V44.8125H84.0639C84.0601 44.4186 83.9749 44.0682 83.8082 43.7614C83.6416 43.4508 83.4086 43.2064 83.1094 43.0284C82.8139 42.8504 82.4692 42.7614 82.0753 42.7614C81.6548 42.7614 81.2855 42.8636 80.9673 43.0682C80.6491 43.2689 80.401 43.5341 80.223 43.8636C80.0488 44.1894 79.9598 44.5473 79.956 44.9375V46.1477C79.956 46.6553 80.0488 47.0909 80.2344 47.4545C80.42 47.8144 80.6795 48.0909 81.0128 48.2841C81.3461 48.4735 81.7363 48.5682 82.1832 48.5682C82.4825 48.5682 82.7533 48.5265 82.9957 48.4432C83.2382 48.3561 83.4484 48.2292 83.6264 48.0625C83.8045 47.8958 83.9389 47.6894 84.0298 47.4432L85.9503 47.6591C85.8291 48.1667 85.598 48.6098 85.2571 48.9886C84.92 49.3636 84.4882 49.6553 83.9616 49.8636C83.4351 50.0682 82.8329 50.1705 82.1548 50.1705ZM87.7756 53.2727V41.2727H89.7983V42.7159H89.9176C90.0237 42.5038 90.1733 42.2784 90.3665 42.0398C90.5597 41.7973 90.821 41.5909 91.1506 41.4205C91.4801 41.2462 91.9006 41.1591 92.4119 41.1591C93.0862 41.1591 93.6941 41.3314 94.2358 41.6761C94.7813 42.017 95.2131 42.5227 95.5312 43.1932C95.8532 43.8598 96.0142 44.678 96.0142 45.6477C96.0142 46.6061 95.857 47.4205 95.5426 48.0909C95.2282 48.7614 94.8002 49.2727 94.2585 49.625C93.7169 49.9773 93.1032 50.1534 92.4176 50.1534C91.9176 50.1534 91.5028 50.0701 91.1733 49.9034C90.8438 49.7367 90.5786 49.536 90.3778 49.3011C90.1809 49.0625 90.0275 48.8371 89.9176 48.625H89.8324V53.2727H87.7756ZM89.7926 45.6364C89.7926 46.2008 89.8722 46.6951 90.0312 47.1193C90.1941 47.5436 90.4271 47.875 90.7301 48.1136C91.0369 48.3485 91.4081 48.4659 91.8438 48.4659C92.2983 48.4659 92.679 48.3447 92.9858 48.1023C93.2926 47.8561 93.5237 47.5208 93.679 47.0966C93.8381 46.6686 93.9176 46.1818 93.9176 45.6364C93.9176 45.0947 93.84 44.6136 93.6847 44.1932C93.5294 43.7727 93.2983 43.4432 92.9915 43.2045C92.6847 42.9659 92.3021 42.8466 91.8438 42.8466C91.4044 42.8466 91.0312 42.9621 90.7244 43.1932C90.4176 43.4242 90.1847 43.7481 90.0256 44.1648C89.8703 44.5814 89.7926 45.072 89.7926 45.6364ZM105.608 50.1705C104.733 50.1705 103.977 49.9886 103.341 49.625C102.708 49.2576 102.222 48.7386 101.881 48.0682C101.54 47.3939 101.369 46.6004 101.369 45.6875C101.369 44.7898 101.54 44.0019 101.881 43.3239C102.225 42.642 102.706 42.1117 103.324 41.733C103.941 41.3504 104.667 41.1591 105.5 41.1591C106.038 41.1591 106.545 41.2462 107.023 41.4205C107.504 41.5909 107.928 41.8561 108.295 42.2159C108.667 42.5758 108.958 43.0341 109.17 43.5909C109.383 44.1439 109.489 44.803 109.489 45.5682V46.1989H102.335V44.8125H107.517C107.513 44.4186 107.428 44.0682 107.261 43.7614C107.095 43.4508 106.862 43.2064 106.562 43.0284C106.267 42.8504 105.922 42.7614 105.528 42.7614C105.108 42.7614 104.739 42.8636 104.42 43.0682C104.102 43.2689 103.854 43.5341 103.676 43.8636C103.502 44.1894 103.413 44.5473 103.409 44.9375V46.1477C103.409 46.6553 103.502 47.0909 103.688 47.4545C103.873 47.8144 104.133 48.0909 104.466 48.2841C104.799 48.4735 105.189 48.5682 105.636 48.5682C105.936 48.5682 106.206 48.5265 106.449 48.4432C106.691 48.3561 106.902 48.2292 107.08 48.0625C107.258 47.8958 107.392 47.6894 107.483 47.4432L109.403 47.6591C109.282 48.1667 109.051 48.6098 108.71 48.9886C108.373 49.3636 107.941 49.6553 107.415 49.8636C106.888 50.0682 106.286 50.1705 105.608 50.1705ZM118.774 41.2727L115.666 50H113.393L110.286 41.2727H112.479L114.484 47.7557H114.575L116.587 41.2727H118.774ZM123.764 50.1705C122.889 50.1705 122.134 49.9886 121.497 49.625C120.865 49.2576 120.378 48.7386 120.037 48.0682C119.696 47.3939 119.526 46.6004 119.526 45.6875C119.526 44.7898 119.696 44.0019 120.037 43.3239C120.382 42.642 120.863 42.1117 121.48 41.733C122.098 41.3504 122.823 41.1591 123.656 41.1591C124.194 41.1591 124.702 41.2462 125.179 41.4205C125.66 41.5909 126.084 41.8561 126.452 42.2159C126.823 42.5758 127.115 43.0341 127.327 43.5909C127.539 44.1439 127.645 44.803 127.645 45.5682V46.1989H120.491V44.8125H125.673C125.67 44.4186 125.584 44.0682 125.418 43.7614C125.251 43.4508 125.018 43.2064 124.719 43.0284C124.423 42.8504 124.079 42.7614 123.685 42.7614C123.264 42.7614 122.895 42.8636 122.577 43.0682C122.259 43.2689 122.01 43.5341 121.832 43.8636C121.658 44.1894 121.569 44.5473 121.565 44.9375V46.1477C121.565 46.6553 121.658 47.0909 121.844 47.4545C122.029 47.8144 122.289 48.0909 122.622 48.2841C122.955 48.4735 123.346 48.5682 123.793 48.5682C124.092 48.5682 124.363 48.5265 124.605 48.4432C124.848 48.3561 125.058 48.2292 125.236 48.0625C125.414 47.8958 125.548 47.6894 125.639 47.4432L127.56 47.6591C127.438 48.1667 127.207 48.6098 126.866 48.9886C126.529 49.3636 126.098 49.6553 125.571 49.8636C125.045 50.0682 124.442 50.1705 123.764 50.1705ZM129.385 50V41.2727H131.379V42.7273H131.47C131.629 42.2235 131.902 41.8352 132.288 41.5625C132.679 41.286 133.124 41.1477 133.624 41.1477C133.737 41.1477 133.864 41.1534 134.004 41.1648C134.148 41.1723 134.268 41.1856 134.362 41.2045V43.0966C134.275 43.0663 134.137 43.0398 133.947 43.017C133.762 42.9905 133.582 42.9773 133.408 42.9773C133.033 42.9773 132.696 43.0587 132.396 43.2216C132.101 43.3807 131.868 43.6023 131.697 43.8864C131.527 44.1705 131.442 44.4981 131.442 44.8693V50H129.385ZM137.273 53.2727C136.992 53.2727 136.733 53.25 136.494 53.2045C136.259 53.1629 136.072 53.1136 135.932 53.0568L136.409 51.4545C136.708 51.5417 136.975 51.5833 137.21 51.5795C137.445 51.5758 137.652 51.5019 137.83 51.358C138.011 51.2178 138.165 50.983 138.29 50.6534L138.466 50.1818L135.301 41.2727H137.483L139.494 47.8636H139.585L141.602 41.2727H143.79L140.295 51.0568C140.133 51.5189 139.917 51.9148 139.648 52.2443C139.379 52.5777 139.049 52.8314 138.659 53.0057C138.273 53.1837 137.811 53.2727 137.273 53.2727ZM148.723 50.1705C147.871 50.1705 147.132 49.983 146.507 49.608C145.882 49.233 145.397 48.7083 145.053 48.0341C144.712 47.3598 144.541 46.572 144.541 45.6705C144.541 44.7689 144.712 43.9792 145.053 43.3011C145.397 42.6231 145.882 42.0966 146.507 41.7216C147.132 41.3466 147.871 41.1591 148.723 41.1591C149.575 41.1591 150.314 41.3466 150.939 41.7216C151.564 42.0966 152.047 42.6231 152.388 43.3011C152.732 43.9792 152.905 44.7689 152.905 45.6705C152.905 46.572 152.732 47.3598 152.388 48.0341C152.047 48.7083 151.564 49.233 150.939 49.608C150.314 49.983 149.575 50.1705 148.723 50.1705ZM148.734 48.5227C149.196 48.5227 149.583 48.3958 149.893 48.142C150.204 47.8845 150.435 47.5398 150.587 47.108C150.742 46.6761 150.82 46.1951 150.82 45.6648C150.82 45.1307 150.742 44.6477 150.587 44.2159C150.435 43.7803 150.204 43.4337 149.893 43.1761C149.583 42.9186 149.196 42.7898 148.734 42.7898C148.261 42.7898 147.867 42.9186 147.553 43.1761C147.242 43.4337 147.009 43.7803 146.854 44.2159C146.702 44.6477 146.626 45.1307 146.626 45.6648C146.626 46.1951 146.702 46.6761 146.854 47.108C147.009 47.5398 147.242 47.8845 147.553 48.142C147.867 48.3958 148.261 48.5227 148.734 48.5227ZM156.707 44.8864V50H154.651V41.2727H156.616V42.7557H156.719C156.92 42.267 157.24 41.8788 157.679 41.5909C158.122 41.303 158.67 41.1591 159.321 41.1591C159.923 41.1591 160.448 41.2879 160.895 41.5455C161.346 41.803 161.694 42.1761 161.94 42.6648C162.19 43.1534 162.313 43.7462 162.31 44.4432V50H160.253V44.7614C160.253 44.178 160.101 43.7216 159.798 43.392C159.499 43.0625 159.084 42.8977 158.554 42.8977C158.194 42.8977 157.874 42.9773 157.594 43.1364C157.317 43.2917 157.099 43.517 156.94 43.8125C156.785 44.108 156.707 44.4659 156.707 44.8864ZM168.264 50.1705C167.389 50.1705 166.634 49.9886 165.997 49.625C165.365 49.2576 164.878 48.7386 164.537 48.0682C164.196 47.3939 164.026 46.6004 164.026 45.6875C164.026 44.7898 164.196 44.0019 164.537 43.3239C164.882 42.642 165.363 42.1117 165.98 41.733C166.598 41.3504 167.323 41.1591 168.156 41.1591C168.694 41.1591 169.202 41.2462 169.679 41.4205C170.16 41.5909 170.584 41.8561 170.952 42.2159C171.323 42.5758 171.615 43.0341 171.827 43.5909C172.039 44.1439 172.145 44.803 172.145 45.5682V46.1989H164.991V44.8125H170.173C170.17 44.4186 170.084 44.0682 169.918 43.7614C169.751 43.4508 169.518 43.2064 169.219 43.0284C168.923 42.8504 168.579 42.7614 168.185 42.7614C167.764 42.7614 167.395 42.8636 167.077 43.0682C166.759 43.2689 166.51 43.5341 166.332 43.8636C166.158 44.1894 166.069 44.5473 166.065 44.9375V46.1477C166.065 46.6553 166.158 47.0909 166.344 47.4545C166.529 47.8144 166.789 48.0909 167.122 48.2841C167.455 48.4735 167.846 48.5682 168.293 48.5682C168.592 48.5682 168.863 48.5265 169.105 48.4432C169.348 48.3561 169.558 48.2292 169.736 48.0625C169.914 47.8958 170.048 47.6894 170.139 47.4432L172.06 47.6591C171.938 48.1667 171.707 48.6098 171.366 48.9886C171.029 49.3636 170.598 49.6553 170.071 49.8636C169.545 50.0682 168.942 50.1705 168.264 50.1705ZM177.854 50V41.2727H179.82V42.7557H179.922C180.104 42.2557 180.405 41.8655 180.825 41.5852C181.246 41.3011 181.748 41.1591 182.331 41.1591C182.922 41.1591 183.42 41.303 183.825 41.5909C184.234 41.875 184.522 42.2633 184.689 42.7557H184.78C184.973 42.2708 185.299 41.8845 185.757 41.5966C186.219 41.3049 186.767 41.1591 187.399 41.1591C188.202 41.1591 188.857 41.4129 189.365 41.9205C189.873 42.428 190.126 43.1686 190.126 44.142V50H188.064V44.4602C188.064 43.9186 187.92 43.5227 187.632 43.2727C187.344 43.0189 186.992 42.892 186.575 42.892C186.079 42.892 185.691 43.0473 185.411 43.358C185.134 43.6648 184.996 44.0644 184.996 44.5568V50H182.979V44.375C182.979 43.9242 182.842 43.5644 182.57 43.2955C182.301 43.0265 181.948 42.892 181.513 42.892C181.217 42.892 180.948 42.9678 180.706 43.1193C180.464 43.267 180.27 43.4773 180.126 43.75C179.982 44.0189 179.911 44.3333 179.911 44.6932V50H177.854ZM196.02 50.1705C195.168 50.1705 194.429 49.983 193.804 49.608C193.179 49.233 192.694 48.7083 192.349 48.0341C192.009 47.3598 191.838 46.572 191.838 45.6705C191.838 44.7689 192.009 43.9792 192.349 43.3011C192.694 42.6231 193.179 42.0966 193.804 41.7216C194.429 41.3466 195.168 41.1591 196.02 41.1591C196.872 41.1591 197.611 41.3466 198.236 41.7216C198.861 42.0966 199.344 42.6231 199.685 43.3011C200.029 43.9792 200.202 44.7689 200.202 45.6705C200.202 46.572 200.029 47.3598 199.685 48.0341C199.344 48.7083 198.861 49.233 198.236 49.608C197.611 49.983 196.872 50.1705 196.02 50.1705ZM196.031 48.5227C196.493 48.5227 196.88 48.3958 197.19 48.142C197.501 47.8845 197.732 47.5398 197.884 47.108C198.039 46.6761 198.116 46.1951 198.116 45.6648C198.116 45.1307 198.039 44.6477 197.884 44.2159C197.732 43.7803 197.501 43.4337 197.19 43.1761C196.88 42.9186 196.493 42.7898 196.031 42.7898C195.558 42.7898 195.164 42.9186 194.849 43.1761C194.539 43.4337 194.306 43.7803 194.151 44.2159C193.999 44.6477 193.923 45.1307 193.923 45.6648C193.923 46.1951 193.999 46.6761 194.151 47.108C194.306 47.5398 194.539 47.8845 194.849 48.142C195.164 48.3958 195.558 48.5227 196.031 48.5227ZM206.305 41.2727V42.8636H201.288V41.2727H206.305ZM202.527 39.1818H204.584V47.375C204.584 47.6515 204.625 47.8636 204.709 48.0114C204.796 48.1553 204.91 48.2538 205.05 48.3068C205.19 48.3598 205.345 48.3864 205.516 48.3864C205.644 48.3864 205.762 48.3769 205.868 48.358C205.978 48.339 206.061 48.322 206.118 48.3068L206.464 49.9148C206.355 49.9527 206.197 49.9943 205.993 50.0398C205.792 50.0852 205.546 50.1117 205.254 50.1193C204.739 50.1345 204.275 50.0568 203.862 49.8864C203.449 49.7121 203.122 49.4432 202.879 49.0795C202.641 48.7159 202.523 48.2614 202.527 47.7159V39.1818ZM208.026 50V41.2727H210.082V50H208.026ZM209.06 40.0341C208.734 40.0341 208.454 39.9261 208.219 39.7102C207.984 39.4905 207.866 39.2273 207.866 38.9205C207.866 38.6098 207.984 38.3466 208.219 38.1307C208.454 37.911 208.734 37.8011 209.06 37.8011C209.389 37.8011 209.67 37.911 209.901 38.1307C210.135 38.3466 210.253 38.6098 210.253 38.9205C210.253 39.2273 210.135 39.4905 209.901 39.7102C209.67 39.9261 209.389 40.0341 209.06 40.0341ZM219.993 41.2727L216.885 50H214.612L211.504 41.2727H213.697L215.703 47.7557H215.794L217.805 41.2727H219.993ZM223.678 50.1761C223.125 50.1761 222.626 50.0777 222.183 49.8807C221.744 49.6799 221.395 49.3845 221.138 48.9943C220.884 48.6042 220.757 48.1231 220.757 47.5511C220.757 47.0587 220.848 46.6515 221.03 46.3295C221.212 46.0076 221.46 45.75 221.774 45.5568C222.089 45.3636 222.443 45.2178 222.837 45.1193C223.234 45.017 223.645 44.9432 224.07 44.8977C224.581 44.8447 224.996 44.7973 225.314 44.7557C225.632 44.7102 225.863 44.642 226.007 44.5511C226.155 44.4564 226.229 44.3106 226.229 44.1136V44.0795C226.229 43.6515 226.102 43.3201 225.848 43.0852C225.594 42.8504 225.229 42.733 224.751 42.733C224.248 42.733 223.848 42.8428 223.553 43.0625C223.261 43.2822 223.064 43.5417 222.962 43.8409L221.041 43.5682C221.193 43.0379 221.443 42.5947 221.791 42.2386C222.14 41.8788 222.566 41.6098 223.07 41.4318C223.573 41.25 224.13 41.1591 224.74 41.1591C225.161 41.1591 225.579 41.2083 225.996 41.3068C226.412 41.4053 226.793 41.5682 227.138 41.7955C227.482 42.0189 227.759 42.3239 227.967 42.7102C228.179 43.0966 228.286 43.5795 228.286 44.1591V50H226.308V48.8011H226.24C226.115 49.0436 225.939 49.2708 225.712 49.483C225.488 49.6913 225.206 49.8598 224.865 49.9886C224.528 50.1136 224.132 50.1761 223.678 50.1761ZM224.212 48.6648C224.625 48.6648 224.982 48.5833 225.286 48.4205C225.589 48.2538 225.821 48.0341 225.984 47.7614C226.151 47.4886 226.234 47.1913 226.234 46.8693V45.8409C226.17 45.8939 226.06 45.9432 225.905 45.9886C225.753 46.0341 225.583 46.0739 225.393 46.108C225.204 46.142 225.017 46.1723 224.831 46.1989C224.645 46.2254 224.484 46.2481 224.348 46.267C224.041 46.3087 223.767 46.3769 223.524 46.4716C223.282 46.5663 223.09 46.6989 222.95 46.8693C222.81 47.036 222.74 47.2519 222.74 47.517C222.74 47.8958 222.878 48.1818 223.155 48.375C223.431 48.5682 223.784 48.6648 224.212 48.6648ZM234.712 41.2727V42.8636H229.695V41.2727H234.712ZM230.933 39.1818H232.99V47.375C232.99 47.6515 233.032 47.8636 233.115 48.0114C233.202 48.1553 233.316 48.2538 233.456 48.3068C233.596 48.3598 233.751 48.3864 233.922 48.3864C234.051 48.3864 234.168 48.3769 234.274 48.358C234.384 48.339 234.467 48.322 234.524 48.3068L234.871 49.9148C234.761 49.9527 234.604 49.9943 234.399 50.0398C234.198 50.0852 233.952 50.1117 233.661 50.1193C233.145 50.1345 232.681 50.0568 232.268 49.8864C231.856 49.7121 231.528 49.4432 231.286 49.0795C231.047 48.7159 230.929 48.2614 230.933 47.7159V39.1818ZM240.202 50.1705C239.327 50.1705 238.571 49.9886 237.935 49.625C237.302 49.2576 236.815 48.7386 236.474 48.0682C236.134 47.3939 235.963 46.6004 235.963 45.6875C235.963 44.7898 236.134 44.0019 236.474 43.3239C236.819 42.642 237.3 42.1117 237.918 41.733C238.535 41.3504 239.26 41.1591 240.094 41.1591C240.632 41.1591 241.139 41.2462 241.616 41.4205C242.098 41.5909 242.522 41.8561 242.889 42.2159C243.26 42.5758 243.552 43.0341 243.764 43.5909C243.976 44.1439 244.082 44.803 244.082 45.5682V46.1989H236.929V44.8125H242.111C242.107 44.4186 242.022 44.0682 241.855 43.7614C241.688 43.4508 241.455 43.2064 241.156 43.0284C240.861 42.8504 240.516 42.7614 240.122 42.7614C239.702 42.7614 239.332 42.8636 239.014 43.0682C238.696 43.2689 238.448 43.5341 238.27 43.8636C238.096 44.1894 238.007 44.5473 238.003 44.9375V46.1477C238.003 46.6553 238.096 47.0909 238.281 47.4545C238.467 47.8144 238.726 48.0909 239.06 48.2841C239.393 48.4735 239.783 48.5682 240.23 48.5682C240.529 48.5682 240.8 48.5265 241.043 48.4432C241.285 48.3561 241.495 48.2292 241.673 48.0625C241.851 47.8958 241.986 47.6894 242.077 47.4432L243.997 47.6591C243.876 48.1667 243.645 48.6098 243.304 48.9886C242.967 49.3636 242.535 49.6553 242.009 49.8636C241.482 50.0682 240.88 50.1705 240.202 50.1705ZM249.061 50.1534C248.375 50.1534 247.762 49.9773 247.22 49.625C246.679 49.2727 246.25 48.7614 245.936 48.0909C245.622 47.4205 245.464 46.6061 245.464 45.6477C245.464 44.678 245.624 43.8598 245.942 43.1932C246.264 42.5227 246.697 42.017 247.243 41.6761C247.788 41.3314 248.396 41.1591 249.067 41.1591C249.578 41.1591 249.999 41.2462 250.328 41.4205C250.658 41.5909 250.919 41.7973 251.112 42.0398C251.305 42.2784 251.455 42.5038 251.561 42.7159H251.646V38.3636H253.709V50H251.686V48.625H251.561C251.455 48.8371 251.302 49.0625 251.101 49.3011C250.9 49.536 250.635 49.7367 250.305 49.9034C249.976 50.0701 249.561 50.1534 249.061 50.1534ZM249.635 48.4659C250.071 48.4659 250.442 48.3485 250.749 48.1136C251.055 47.875 251.288 47.5436 251.447 47.1193C251.607 46.6951 251.686 46.2008 251.686 45.6364C251.686 45.072 251.607 44.5814 251.447 44.1648C251.292 43.7481 251.061 43.4242 250.754 43.1932C250.451 42.9621 250.078 42.8466 249.635 42.8466C249.177 42.8466 248.794 42.9659 248.487 43.2045C248.18 43.4432 247.949 43.7727 247.794 44.1932C247.639 44.6136 247.561 45.0947 247.561 45.6364C247.561 46.1818 247.639 46.6686 247.794 47.0966C247.953 47.5208 248.186 47.8561 248.493 48.1023C248.804 48.3447 249.184 48.4659 249.635 48.4659Z" fill="black"/>
<circle cx="25" cy="31" r="25" fill="#028971"/>
<circle cx="20.5" cy="26.5" r="11" stroke="white" stroke-width="3"/>
<line x1="30.0034" y1="33.8851" x2="40.0034" y2="42.8851" stroke="white" stroke-width="3"/>
</svg>
